<?xml version="1.0" encoding="UTF-8"?>
<svg version="1.1" xmlns="http://www.w3.org/2000/svg" width="512" height="512">
<path d="M0 0 C1.0054184 0.00465271 2.01083679 0.00930542 3.04672241 0.01409912 C17.55398411 0.09270742 31.81520628 0.39095071 46.0625 3.375 C47.03735352 3.57367676 48.01220703 3.77235352 49.01660156 3.97705078 C97.3984774 14.09767194 141.38678269 36.0141877 177.0625 70.375 C178.0515332 71.32318604 178.0515332 71.32318604 179.06054688 72.29052734 C188.54880305 81.43497479 197.2887044 90.73234009 205.0625 101.375 C205.92056152 102.52605017 206.77863451 103.67709177 207.63671875 104.828125 C213.67486829 113.01930614 219.03345521 121.53304105 224.0625 130.375 C224.42698242 131.00680176 224.79146484 131.63860352 225.16699219 132.28955078 C246.77284998 170.03782572 256.53948095 212.80439997 256.375 256 C256.37284485 257.01790619 256.3706897 258.03581238 256.36846924 259.08456421 C256.27712314 285.95114236 253.13324428 312.18634857 243.62890625 337.53125 C242.40613639 343.67039797 244.14274436 350.06839647 245.21826172 356.15820312 C250.18174396 384.73546704 244.71842883 413.4611792 227.94921875 437.390625 C226.05483903 439.78894651 224.08834545 442.08748285 222.0625 444.375 C221.546875 445.03242188 221.03125 445.68984375 220.5 446.3671875 C204.79842444 465.91564907 178.8523034 477.38877326 154.34204102 480.2512207 C151.62454249 480.39878114 148.97903473 480.27194659 146.26171875 480.12109375 C131.22954551 479.32603983 122.20153448 481.22052562 109.4921875 488.99804688 C91.61134451 499.13148281 69.62904448 504.5928513 49.625 508.6875 C48.90610596 508.83485596 48.18721191 508.98221191 47.4465332 509.1340332 C32.77089502 511.92340125 18.24581162 512.72392619 3.33520508 512.69067383 C0.39561513 512.6875221 -2.5429558 512.71104926 -5.48242188 512.73632812 C-18.85556192 512.78098737 -31.75166711 511.57551542 -44.9375 509.375 C-46.64305054 509.09281616 -46.64305054 509.09281616 -48.38305664 508.80493164 C-72.5138503 504.47040054 -100.78765399 496.85964217 -121.19291687 482.82357788 C-124.44393379 481.10770666 -126.53190147 480.99713515 -130.19311523 480.99023438 C-131.4346788 480.98012329 -132.67624237 480.97001221 -133.95542908 480.95959473 C-134.61367109 480.96115067 -135.27191311 480.9627066 -135.95010185 480.96430969 C-138.02336559 480.96880919 -140.09578534 480.95472898 -142.16896057 480.93591309 C-146.5709602 480.89922205 -150.97287001 480.88543784 -155.375 480.875 C-160.47535395 480.86289605 -165.57529422 480.841245 -170.67546272 480.79499817 C-172.71068459 480.7814851 -174.74537571 480.78558799 -176.78062439 480.79040527 C-178.02534012 480.78029419 -179.27005585 480.77018311 -180.55249023 480.75976562 C-182.18866554 480.75668396 -182.18866554 480.75668396 -183.8578949 480.75354004 C-188.07014256 480.23577742 -191.25430173 478.56446011 -194.6953125 476.1328125 C-196.60794843 473.42625222 -197.13430996 470.43723251 -197.8125 467.25 C-197.98048096 466.51281738 -198.14846191 465.77563477 -198.3215332 465.01611328 C-199.32358015 460.52866572 -200.19014132 456.02795175 -200.98828125 451.5 C-203.49582637 437.54136892 -207.40839386 425.12129451 -212.86376953 412.05126953 C-214.81499319 407.18785123 -216.4110943 402.21087951 -217.99780273 397.21899414 C-220.22605385 390.26166674 -223.15467437 383.86879746 -226.65527344 377.46362305 C-238.84085048 355.04799616 -247.1361583 330.92072181 -252.25 305.9375 C-252.39735596 305.21860596 -252.54471191 304.49971191 -252.6965332 303.7590332 C-255.67039088 288.11274391 -256.31050362 272.63931954 -256.25 256.75 C-256.24784485 255.73209381 -256.2456897 254.71418762 -256.24346924 253.66543579 C-256.19379854 239.05636477 -255.94290191 224.72424147 -252.9375 210.375 C-252.73882324 209.40014648 -252.54014648 208.42529297 -252.33544922 207.42089844 C-244.92413579 171.99093416 -231.46904416 138.42783835 -210.4453125 108.85546875 C-210.03547119 108.27563232 -209.62562988 107.6957959 -209.20336914 107.09838867 C-208.34212709 105.92587032 -207.44326691 104.78027652 -206.51342773 103.66137695 C-202.85131968 99.10166174 -202.35070014 95.93991356 -202.75 90.1875 C-202.7943467 88.67465789 -202.83208521 87.16160791 -202.86328125 85.6484375 C-202.88084473 84.91592773 -202.8984082 84.18341797 -202.91650391 83.42871094 C-203.04126606 71.22523155 -197.42853009 56.83002421 -188.80859375 47.953125 C-175.56235372 36.78093091 -161.52968868 31.02776247 -143.9375 32.375 C-141.82384615 33.03275452 -139.71922904 33.72029827 -137.625 34.4375 C-132.63698647 35.70836948 -129.87561807 35.33291272 -125.34765625 32.82397461 C-122.5868165 31.14594441 -119.85688848 29.42107189 -117.12695312 27.69335938 C-98.87526319 16.70326954 -76.78228767 10.06534505 -56.125 5.5 C-55.31699951 5.32114258 -54.50899902 5.14228516 -53.67651367 4.95800781 C-50.77157255 4.36429722 -47.86303406 3.85861757 -44.9375 3.375 C-43.81506393 3.18868011 -43.81506393 3.18868011 -42.66995239 2.99859619 C-28.3933138 0.68680962 -14.44956184 -0.11998824 0 0 Z " fill="#FEC32D" transform="translate(255.9375,-0.375)"/>
<path d="M0 0 C12.25020847 8.39055375 20.50053279 19.64496632 23.9140625 34.203125 C24.13393284 37.00147476 24.24608451 39.65763169 24.2265625 42.453125 C24.22382324 43.2989917 24.22108398 44.1448584 24.21826172 45.01635742 C24.07794419 54.29102359 23.18442806 63.50335382 22.33496094 72.73330688 C21.19117637 85.19212257 20.3563006 97.64535029 19.7265625 110.140625 C19.68404358 110.9619693 19.64152466 111.7833136 19.59771729 112.62954712 C19.36483196 117.16921342 19.16396093 121.70842059 18.99856567 126.2510376 C18.92160632 128.02885703 18.80000216 129.80460164 18.67358398 131.57958984 C18.27433298 139.60485954 20.5903108 144.95754662 24.3515625 151.953125 C37.25029417 177.40387897 50.54951068 209.1220258 49.9140625 238.203125 C50.46868164 238.05689697 51.02330078 237.91066895 51.59472656 237.76000977 C54.1177699 237.09495411 56.6409151 236.43028574 59.1640625 235.765625 C60.03675781 235.53552734 60.90945313 235.30542969 61.80859375 235.06835938 C62.65292969 234.84599609 63.49726563 234.62363281 64.3671875 234.39453125 C65.14223633 234.19029541 65.91728516 233.98605957 66.71582031 233.77563477 C67.8039502 233.49224243 67.8039502 233.49224243 68.9140625 233.203125 C69.85378906 232.9261377 69.85378906 232.9261377 70.8125 232.64355469 C85.66409531 229.53106887 103.66164708 231.16455083 117.9140625 236.203125 C119.24190357 236.63238967 120.57003832 237.0607468 121.8984375 237.48828125 C137.29097513 242.65107587 149.43561699 250.86072033 160.9140625 262.203125 C161.62949219 262.84636719 162.34492188 263.48960937 163.08203125 264.15234375 C177.96537036 277.84739231 188.1058861 299.3621777 190.9140625 319.203125 C191.10548828 320.35554687 191.10548828 320.35554687 191.30078125 321.53125 C195.05528257 347.861519 187.997651 375.5330135 172.80078125 397.21875 C170.90640153 399.61707151 168.93990795 401.91560785 166.9140625 404.203125 C166.3984375 404.86054688 165.8828125 405.51796875 165.3515625 406.1953125 C149.57056548 425.84265379 123.60577582 437.22264593 98.98803711 440.0222168 C70.69145134 442.49046518 44.50555192 434.21318762 21.9140625 417.203125 C20.66099086 420.69382457 19.74839461 424.06238425 19.1015625 427.703125 C18.10885024 432.40461024 16.29329509 434.82389241 12.9140625 438.203125 C9.96008731 439.68011259 6.95415936 439.37637188 3.71386719 439.39599609 C2.97218796 439.40417358 2.23050873 439.41235107 1.46635437 439.42077637 C-0.99377636 439.44563435 -3.45384931 439.46214865 -5.9140625 439.4765625 C-6.75424675 439.48188618 -7.594431 439.48720985 -8.46007538 439.49269485 C-12.9084329 439.5194301 -17.35676234 439.53880248 -21.80517578 439.55322266 C-26.39648547 439.5698582 -30.98707564 439.61462515 -35.57811356 439.6655941 C-39.11092944 439.69928015 -42.64357496 439.7108016 -46.17653656 439.71644974 C-47.86861409 439.72316009 -49.56068049 439.73837669 -51.25260162 439.76234055 C-53.62504835 439.79402178 -55.99556065 439.79402526 -58.36816406 439.78662109 C-59.06345718 439.80302643 -59.75875031 439.81943176 -60.47511292 439.83633423 C-66.04526789 439.76540364 -68.30837826 437.99699867 -72.0859375 434.203125 C-73.24023438 432.00415039 -73.24023438 432.00415039 -73.8046875 429.73828125 C-74.02511719 428.8683252 -74.24554688 427.99836914 -74.47265625 427.10205078 C-75.8771755 420.46301354 -77.0466003 413.79139814 -78.19140625 407.10351562 C-79.97707759 397.00935441 -83.0725029 388.1771543 -86.85522461 378.67626953 C-109.60193838 320.96563646 -114.61724387 257.04699184 -97.0859375 197.203125 C-96.82973633 196.32430664 -96.57353516 195.44548828 -96.30957031 194.54003906 C-91.31273248 177.78151017 -84.55156275 161.36845834 -76.27734375 145.9609375 C-74.13316009 141.68993028 -73.41022277 138.03326691 -73.6484375 133.265625 C-73.66801514 132.48171387 -73.68759277 131.69780273 -73.70776367 130.89013672 C-73.79740667 127.99194903 -73.93917738 125.09898517 -74.0859375 122.203125 C-74.17004883 120.37418701 -74.17004883 120.37418701 -74.25585938 118.50830078 C-74.89701424 104.72501475 -75.74996669 90.95850955 -76.88671875 77.20703125 C-76.95484268 76.38289734 -77.02296661 75.55876343 -77.09315491 74.70965576 C-77.42385735 70.7429867 -77.7647066 66.77749723 -78.12036133 62.81298828 C-79.77440416 44.01156818 -80.17617683 27.90132113 -68.0859375 12.203125 C-62.59898333 5.74728487 -56.65367679 0.99853083 -49.0859375 -2.796875 C-48.3021875 -3.21066406 -47.5184375 -3.62445313 -46.7109375 -4.05078125 C-32.11995964 -10.59392289 -13.45077883 -7.83209906 0 0 Z " fill="#020201" transform="translate(311.0859375,39.796875)"/>
<path d="M0 0 C10.71474402 7.70678432 17.82019288 20.00222919 20 33 C20.72816264 46.66779506 19.23014637 60.33507346 18.0625 73.9375 C17.69622833 78.27970053 17.33354624 82.62219282 16.97265625 86.96484375 C16.88560928 88.00905991 16.79856232 89.05327606 16.70887756 90.12913513 C15.99976956 98.7472063 15.45550364 107.36536276 15 116 C14.93288818 117.02617432 14.86577637 118.05234863 14.79663086 119.10961914 C13.9845303 132.06595502 15.22953226 140.71713973 21.81494141 151.86865234 C24.0549247 155.89729968 25.82455769 160.13616339 27.625 164.375 C28.00422607 165.26695068 28.38345215 166.15890137 28.77416992 167.07788086 C55.16656248 230.17317939 55.32550865 300.89124483 32 365 C31.21104439 366.89909356 30.40459239 368.79099997 29.58203125 370.67578125 C23.2814578 385.14465386 19.82452652 399.06892266 17.33203125 414.58642578 C17.20303436 415.36360458 17.07403748 416.14078339 16.94113159 416.94151306 C16.70192127 418.39792811 16.47561726 419.85654997 16.26516724 421.31739807 C15.48789812 426.07276111 14.05351956 429.27686078 11 433 C7.48325341 435.48641439 4.87667362 436.41470626 0.59521484 436.67480469 C-0.46095032 436.7390564 -1.51711548 436.80330811 -2.60528564 436.86950684 C-8.578789 437.09912891 -14.54578305 437.18320657 -20.5234375 437.203125 C-21.18896259 437.20595238 -21.85448769 437.20877975 -22.54018021 437.21169281 C-26.04843775 437.22652628 -29.55665571 437.23586064 -33.06494141 437.24023438 C-36.66931299 437.24575941 -40.27331453 437.2699161 -43.8775692 437.29820633 C-46.67262857 437.31685823 -49.46759805 437.3220392 -52.26271439 437.32357025 C-54.23356765 437.32803469 -56.20437267 437.34664129 -58.17514038 437.36553955 C-59.37724152 437.36253845 -60.57934265 437.35953735 -61.81787109 437.35644531 C-63.39572891 437.36191376 -63.39572891 437.36191376 -65.00546265 437.36749268 C-69.17331024 436.85601017 -72.35358656 435.1634655 -75.7578125 432.7578125 C-77.67044843 430.05125222 -78.19680996 427.06223251 -78.875 423.875 C-79.04298096 423.13781738 -79.21096191 422.40063477 -79.3840332 421.64111328 C-80.38608015 417.15366572 -81.25264132 412.65295175 -82.05078125 408.125 C-84.55832637 394.16636892 -88.47089386 381.74629451 -93.92626953 368.67626953 C-95.87749319 363.81285123 -97.4735943 358.83587951 -99.06030273 353.84399414 C-101.28855385 346.88666674 -104.21717437 340.49379746 -107.71777344 334.08862305 C-119.90335048 311.67299616 -128.1986583 287.54572181 -133.3125 262.5625 C-133.45985596 261.84360596 -133.60721191 261.12471191 -133.7590332 260.3840332 C-136.73289088 244.73774391 -137.37300362 229.26431954 -137.3125 213.375 C-137.31034485 212.35709381 -137.3081897 211.33918762 -137.30596924 210.29043579 C-137.25629854 195.68136477 -137.00540191 181.34924147 -134 167 C-133.80132324 166.02514648 -133.60264648 165.05029297 -133.39794922 164.04589844 C-125.98663579 128.61593416 -112.53154416 95.05283835 -91.5078125 65.48046875 C-91.09797119 64.90063232 -90.68812988 64.3207959 -90.26586914 63.72338867 C-89.40462709 62.55087032 -88.50576691 61.40527652 -87.57592773 60.28637695 C-83.91381968 55.72666174 -83.41320014 52.56491356 -83.8125 46.8125 C-83.8568467 45.29965789 -83.89458521 43.78660791 -83.92578125 42.2734375 C-83.94334473 41.54092773 -83.9609082 40.80841797 -83.97900391 40.05371094 C-84.10376606 27.85023155 -78.49103009 13.45502421 -69.87109375 4.578125 C-48.54607998 -13.40789914 -23.37162344 -16.47055352 0 0 Z " fill="#020201" transform="translate(137,43)"/>
<path d="M0 0 C22.11 0 44.22 0 67 0 C78.68741991 22.20609783 78.68741991 22.20609783 82.1875 31.625 C82.59693848 32.71200195 83.00637695 33.79900391 83.42822266 34.91894531 C92.32674528 59.06859537 99.06869967 84.85413093 99.203125 110.73046875 C99.21013931 111.63511368 99.21715363 112.53975861 99.22438049 113.47181702 C99.24180142 116.37709581 99.24823335 119.28217088 99.25 122.1875 C99.25067474 123.17931274 99.25134949 124.17112549 99.25204468 125.19299316 C99.23669064 139.3697938 98.80044014 153.06610271 96 167 C95.64360879 168.95295689 95.28818891 170.90609121 94.93359375 172.859375 C90.9158287 194.16220122 84.7344395 216.531121 75 236 C47.61 236 20.22 236 -8 236 C-22.65722812 199.35692971 -32.21718945 163.29428156 -32.25 123.6875 C-32.25067474 122.94599701 -32.25134949 122.20449402 -32.25204468 121.44052124 C-32.23293378 108.11022409 -31.31698335 95.14737143 -29 82 C-28.76651855 80.63319092 -28.76651855 80.63319092 -28.52832031 79.23876953 C-23.62439568 51.51348707 -13.64579262 24.56242672 0 0 Z " fill="#4BC7EF" transform="translate(72,188)"/>
<path d="M0 0 C1.22847656 0.31839844 2.45695312 0.63679688 3.72265625 0.96484375 C17.59425714 4.79068291 29.21612633 11.41025204 40 21 C40.74636719 21.65226562 41.49273437 22.30453125 42.26171875 22.9765625 C58.12914924 37.76401081 68.37076522 59.61344944 69.3125 81.29296875 C69.91962561 109.51419075 61.34353906 132.00761075 41.875 152.5625 C24.26468832 169.75988024 0.85244356 177.69657025 -23.47021484 177.47265625 C-47.29898133 176.74251586 -68.06299494 166.64944979 -85 150 C-85.68707031 149.32582031 -86.37414062 148.65164063 -87.08203125 147.95703125 C-96.73198931 137.81220355 -103.12087898 125.37155834 -107 112 C-107.31839844 110.93910156 -107.63679688 109.87820313 -107.96484375 108.78515625 C-113.82523492 86.07276468 -109.75821467 62.09296064 -98.22265625 41.88671875 C-84.49811137 20.24740565 -64.01259962 5.02207404 -38.9375 -0.8125 C-26.33895673 -3.1102654 -12.41345743 -3.36307854 0 0 Z " fill="#898AC2" transform="translate(419,288)"/>
<path d="M0 0 C2.822052 -0.36076355 2.822052 -0.36076355 6.46923828 -0.34057617 C7.46454056 -0.34123329 7.46454056 -0.34123329 8.47994995 -0.34190369 C10.677035 -0.33981068 12.87336049 -0.31645699 15.0703125 -0.29296875 C16.5920266 -0.28737458 18.1137461 -0.28310364 19.63546753 -0.28010559 C23.64364499 -0.26864261 27.65149712 -0.2391633 31.6595459 -0.20599365 C35.74824624 -0.17532384 39.83699907 -0.16160689 43.92578125 -0.14648438 C51.95067025 -0.11429467 59.97529468 -0.06308116 68 0 C69.74979157 3.61478898 71.49263605 7.23288746 73.234375 10.8515625 C73.72341309 11.86162354 74.21245117 12.87168457 74.71630859 13.91235352 C85.88750916 37.15926755 101.33468783 71.65596618 98 98 C96.05078125 99.828125 96.05078125 99.828125 93.3125 101.25 C71.29566541 113.99658845 56.05766098 135.7246227 49 160 C42.65379749 184.22732658 45.94355952 208.2978104 55.29150391 231.21679688 C55.91664813 232.79021295 56.46460823 234.3938247 57 236 C35.55 236 14.1 236 -8 236 C-36.54486141 159.88036956 -40.51299178 87.6226962 -6.39233398 12.35400391 C-2.31727244 3.47590866 -2.31727244 3.47590866 0 0 Z " fill="#4BC7EF" transform="translate(250,188)"/>
<path d="M0 0 C0.66 0 1.32 0 2 0 C3.63719553 11.71677163 4.65666151 23.42212461 5.43261719 35.22460938 C5.62340378 38.10093515 5.82691745 40.97617127 6.03125 43.8515625 C6.42506787 49.56483195 6.73139735 55.27959628 7 61 C7.05070648 61.96718964 7.10141296 62.93437927 7.15365601 63.93087769 C7.74812965 76.37751582 7.43359197 85.34172191 1.0625 96.3125 C-0.14608123 98.60837704 -1.34514052 100.90928904 -2.53515625 103.21484375 C-3.12699707 104.34776855 -3.71883789 105.48069336 -4.32861328 106.64794922 C-30.48652753 159.10897209 -31.43837546 223.84558092 -19 280 C-18.80148438 280.89879883 -18.60296875 281.79759766 -18.3984375 282.72363281 C-17.93467387 284.81628456 -17.46772495 286.90823007 -17 289 C-36.15953125 271.34304131 -44.29076076 232.09576337 -49.3125 207.5625 C-49.45985596 206.84360596 -49.60721191 206.12471191 -49.7590332 205.3840332 C-52.73289088 189.73774391 -53.37300362 174.26431954 -53.3125 158.375 C-53.31034485 157.35709381 -53.3081897 156.33918762 -53.30596924 155.29043579 C-53.25629854 140.68136477 -53.00540191 126.34924147 -50 112 C-49.80132324 111.02514648 -49.60264648 110.05029297 -49.39794922 109.04589844 C-41.83676972 72.89949575 -27.96837911 38.73972669 -6.25878906 8.75537109 C-5.36917282 7.51480848 -4.49777539 6.26108447 -3.63964844 4.99853516 C-2.47443123 3.29844319 -1.24236705 1.64455706 0 0 Z " fill="#FDC22D" transform="translate(53,98)"/>
<path d="M0 0 C9.06718192 5.87662467 15.81101673 13.94171011 18.41015625 24.55859375 C19.10961256 35.27406269 18.06892287 46.08426268 17.18334961 56.76074219 C16.96952519 59.34645667 16.76639977 61.93286452 16.56445312 64.51953125 C16.43160719 66.17322681 16.29816653 67.82687473 16.1640625 69.48046875 C16.10360245 70.24913269 16.0431424 71.01779663 15.98085022 71.80975342 C15.72022469 74.90383113 15.39629463 77.60017861 14.41015625 80.55859375 C-7.69984375 80.55859375 -29.80984375 80.55859375 -52.58984375 80.55859375 C-53.57984375 69.94703125 -53.57984375 69.94703125 -54.58984375 59.12109375 C-54.79867187 56.90592041 -55.0075 54.69074707 -55.22265625 52.40844727 C-55.38704446 50.62649486 -55.55112691 48.84451421 -55.71484375 47.0625 C-55.80121094 46.15850464 -55.88757813 45.25450928 -55.9765625 44.32312012 C-57.07010546 32.3087932 -57.14813202 21.54958213 -49.83984375 11.24609375 C-37.1922862 -3.91839068 -18.08178025 -10.06361525 0 0 Z " fill="#4BC7EE" transform="translate(302.58984375,51.44140625)"/>
<path d="M0 0 C9.80633388 5.24452666 15.20866448 12.656459 19 23 C21.3025049 30.85496996 19.89585133 39.57881223 19.125 47.6015625 C19.04636719 48.45645264 18.96773438 49.31134277 18.88671875 50.19213867 C18.59613305 53.33689061 18.2976222 56.4809062 18 59.625 C17.34 66.67875 16.68 73.7325 16 81 C-6.11 81 -28.22 81 -51 81 C-51.66 74.68875 -52.32 68.3775 -53 61.875 C-53.20882812 59.9141748 -53.41765625 57.95334961 -53.6328125 55.93310547 C-57.09483082 22.61853852 -57.09483082 22.61853852 -47 10 C-35.09294099 -4.19796585 -16.75256127 -8.3245752 0 0 Z " fill="#4BC7EF" transform="translate(123,51)"/>
<path d="M0 0 C24.75 0 49.5 0 75 0 C73.60821753 9.04658606 71.91782397 18.05015481 70 27 C48.55 27 27.1 27 5 27 C0 2 0 2 0 0 Z " fill="#E4E6E7" transform="translate(68,438)"/>
<path d="M0 0 C8.92732977 -0.09268433 17.85449391 -0.16375667 26.78219986 -0.20724869 C30.9277267 -0.22812288 35.07292434 -0.25643685 39.21826172 -0.30175781 C43.21885157 -0.34522249 47.21912481 -0.36913838 51.21993256 -0.37950897 C52.74619277 -0.38689931 54.27243568 -0.40133111 55.7985611 -0.42292023 C57.93672614 -0.45196424 60.07358346 -0.45595585 62.21191406 -0.45410156 C63.4288092 -0.46298401 64.64570435 -0.47186646 65.8994751 -0.48101807 C69.59272869 0.09195643 70.77126926 1.05622419 73 4 C73.94094914 11.19627302 70.48823812 20.55096813 69 27 C47.55 27 26.1 27 4 27 C0 7 0 7 0 0 Z " fill="#E4E6E7" transform="translate(247,438)"/>
<path d="M0 0 C21.45 0 42.9 0 65 0 C64.67 8.91 64.34 17.82 64 27 C43.21 27 22.42 27 1 27 C0.67 18.09 0.34 9.18 0 0 Z " fill="#E2E4E4" transform="translate(73,146)"/>
<path d="M0 0 C21.45 0 42.9 0 65 0 C65 9.00617072 64.59908157 18.01377652 64 27 C43.54 27 23.08 27 2 27 C0 9 0 9 0 0 Z " fill="#E2E4E4" transform="translate(251,146)"/>
<path d="M0 0 C5.57620408 2.52874371 9.90057695 6.8714664 12.640625 12.3515625 C13.32969785 19.85261262 13.76638741 26.59631727 9.0703125 32.8046875 C5.43870633 36.73396631 1.51209785 40.01296616 -3.91015625 40.65234375 C-11.38641708 40.68406763 -16.1066834 39.99910218 -22.046875 35.1640625 C-26.77589698 29.41254928 -29.10526648 24.36160148 -28.734375 16.8046875 C-27.78131062 10.57005802 -25.21084118 6.72332116 -20.234375 2.9140625 C-14.00672226 -1.39829327 -7.41497196 -2.03788964 0 0 Z " fill="#030201" transform="translate(443.359375,338.6484375)"/>
<path d="M0 0 C5.50344447 2.41087446 9.28000938 5.39259411 12.3359375 10.6015625 C14.72138442 16.78881544 14.4278432 23.50806718 11.7734375 29.5703125 C8.89972314 34.48641671 4.75106938 38.39026854 -0.6640625 40.1953125 C-13.82157525 41.51607935 -13.82157525 41.51607935 -19.2265625 37.6953125 C-21.04296875 36.015625 -21.04296875 36.015625 -22.6640625 34.1953125 C-23.18871094 33.61523438 -23.71335937 33.03515625 -24.25390625 32.4375 C-27.91320152 27.59222814 -28.36366796 23.00120294 -28.078125 17.02734375 C-27.11471534 10.43798522 -23.44330015 6.60308918 -18.4453125 2.45703125 C-12.62555152 -1.66529944 -6.81026734 -2.05706022 0 0 Z " fill="#020201" transform="translate(404.6640625,372.8046875)"/>
<path d="M0 0 C2.74284336 1.67088371 4.55095514 3.21380496 6.62109375 5.6484375 C7.49701172 6.65197266 7.49701172 6.65197266 8.390625 7.67578125 C11.96848601 12.81094816 11.56808743 19.72522497 10.80859375 25.7109375 C8.67621518 31.3410912 5.26103281 34.83578264 0.05859375 37.7734375 C-5.05837547 39.97849781 -9.69124986 40.82717218 -15.19140625 39.7109375 C-21.4878578 37.10855122 -26.39352486 32.54175897 -29.296875 26.35546875 C-31.04115864 21.19878742 -31.24689263 15.57793306 -29.3515625 10.4296875 C-23.00851837 -0.67597899 -12.24334167 -4.94529101 0 0 Z " fill="#030201" transform="translate(398.19140625,324.2890625)"/>
<path d="M0 0 C2.60964149 1.03012164 3.83498357 1.58694861 5.375 3.9375 C5.76476435 7.05561483 5.87922245 9.04769567 4.3125 11.8125 C1.23428089 13.59985303 -1.15406068 13.37136742 -4.625 12.9375 C-6.99966282 10.86924529 -7.51185647 9.50321765 -8.125 6.4375 C-7.625 3.9375 -7.625 3.9375 -5.4375 1.5625 C-2.625 -0.0625 -2.625 -0.0625 0 0 Z " fill="#DDDDD9" transform="translate(398.625,386.0625)"/>
<path d="M0 0 C1.875 1.125 1.875 1.125 3 3 C3.54624158 6.66762206 3.47898298 8.3258758 1.3125 11.375 C-1 13 -1 13 -3.5 13.5625 C-6 13 -6 13 -8.375 10.8125 C-10 8 -10 8 -9.9375 5.375 C-7.88828636 0.18365877 -5.54148729 -0.69268591 0 0 Z " fill="#DEDFDB" transform="translate(439,352)"/>
<path d="M0 0 C3.5625 0.3125 3.5625 0.3125 5.5 1.4375 C7.11215675 4.2824825 7.08638687 6.1036929 6.5625 9.3125 C4.375 11.75 4.375 11.75 1.5625 13.3125 C-1.31506134 13.24398663 -2.864777 12.6561338 -5.3125 11.1875 C-7.14752135 8.12913109 -6.22788061 5.65641796 -5.4375 2.3125 C-3.4375 0.3125 -3.4375 0.3125 0 0 Z " fill="#DEDEDA" transform="translate(388.4375,336.6875)"/>
</svg>
